<svg width="20" height="20" viewBox="0 0 20 20" fill="none" xmlns="http://www.w3.org/2000/svg">
<path d="M14.1782 2.17611C14.4444 1.56201 14.6105 1.03271 14.6105 0.530191C14.6105 0.446289 14.5775 0.390949 14.5775 0.307047C14.5775 0.223144 14.5445 0.111572 14.5104 0C12.846 0.307047 11.682 0.920248 10.9494 1.81283C10.2167 2.67773 9.85145 3.70956 9.81737 4.90918C10.4169 4.85295 10.9153 4.76994 11.2816 4.68604C11.7811 4.54679 12.3135 4.26742 12.846 3.8488C13.4455 3.34628 13.9109 2.73307 14.1771 2.17521L14.1782 2.17611ZM12.2805 4.96541C11.2816 5.24479 10.583 5.35636 10.2167 5.35636C9.91747 5.35636 9.28491 5.24479 8.25302 5.02164C7.25414 4.77083 6.42245 4.6307 5.69086 4.6307C4.06049 4.6307 2.69528 5.21623 1.59736 6.38818C0.532453 7.56014 0 9.03825 0 10.8787C0 12.8594 0.698578 14.8677 2.0968 16.9313C3.52803 18.9958 4.99228 20 6.42351 20C6.88994 20 7.48842 19.8608 8.32011 19.6091C9.08578 19.3582 9.75134 19.2181 10.3498 19.2181C10.9483 19.2181 11.681 19.3297 12.5126 19.5805C13.3784 19.8313 14.044 19.9429 14.5424 19.9429C15.7734 19.9429 17.0055 19.1619 18.2365 17.6275C18.6359 17.125 19.0022 16.5957 19.3014 16.0932C19.5676 15.6192 19.8009 15.1167 20 14.6427C19.1012 14.4196 18.3356 13.8894 17.7041 13.1084C17.0715 12.2997 16.7393 11.4071 16.7393 10.4307C16.7393 9.51042 17.0385 8.70085 17.638 7.94841C18.0044 7.55746 18.5698 7.05583 19.3025 6.52564C19.0693 6.27483 18.803 6.02312 18.5698 5.82854C18.3036 5.63306 18.0704 5.46615 17.8372 5.32601C16.9054 4.82349 15.8735 4.54501 14.7426 4.54501C14.077 4.54501 13.2453 4.71281 12.2794 4.96363L12.2805 4.96541Z" fill="black"/>
</svg>
