<svg width="20" height="20" viewBox="0 0 20 20" fill="none" xmlns="http://www.w3.org/2000/svg">
<path fill-rule="evenodd" clip-rule="evenodd" d="M19.8215 8.00396H10.2113C10.2113 9.0034 10.2113 11.0021 10.2052 12.0015H15.774C15.5606 13.001 14.804 14.4005 13.735 15.1051C13.735 15.1051 13.7329 15.1109 13.7309 15.1099C12.3096 16.0484 10.4339 16.2614 9.04117 15.9815C6.85813 15.5478 5.13048 13.9646 4.42901 11.9537C4.4331 11.9507 4.43617 11.923 4.43923 11.921C4.00018 10.6737 4.00018 9.0034 4.43923 8.00396H4.43821C5.00388 6.16699 6.78358 4.491 8.96968 4.03226C10.7279 3.65946 12.7119 4.06302 14.171 5.42826C14.365 5.23837 16.8564 2.80582 17.0432 2.60793C12.0584 -1.90655 4.07675 -0.318482 1.09014 5.51127H1.08912C1.08912 5.51127 1.09015 5.51151 1.08402 5.5225C-0.393454 8.3859 -0.332192 11.7599 1.09423 14.4864C1.09015 14.4894 1.08709 14.4912 1.08402 14.4942C2.37669 17.0028 4.72922 18.9267 7.56369 19.6593C10.5748 20.4489 14.4068 19.9092 16.9738 17.5875L16.9769 17.5904C19.1517 15.6315 20.5056 12.2946 19.8215 8.00396Z" fill="black"/>
</svg>
